{
    "programs": [

    ],
    "streams": [
        {
            "index": 0,
            "codec_name": "mpeg2video",
            "codec_long_name": "MPEG-2 video",
            "profile": "Main",
            "codec_type": "video",
            "codec_time_base": "1001/60000",
            "codec_tag_string": "[0][0][0][0]",
            "codec_tag": "0x0000",
            "width": 1920,
            "height": 1080,
            "has_b_frames": 0,
            "sample_aspect_ratio": "1:1",
            "display_aspect_ratio": "16:9",
            "pix_fmt": "yuv420p",
            "level": 4,
            "color_range": "tv",
            "chroma_location": "left",
            "timecode": "09:54:47;05",
            "refs": 1,
            "id": "0x1e0",
            "r_frame_rate": "30000/1001",
            "avg_frame_rate": "30000/1001",
            "time_base": "1/90000",
            "start_pts": 6006,
            "start_time": "0.066733",
            "duration_ts": 9813804,
            "duration": "109.042267",
            "max_bit_rate": "100000000",
            "disposition": {
                "default": 0,
                "dub": 0,
                "original": 0,
                "comment": 0,
                "lyrics": 0,
                "karaoke": 0,
                "forced": 0,
                "hearing_impaired": 0,
                "visual_impaired": 0,
                "clean_effects": 0,
                "attached_pic": 0
            }
        },
        {
            "index": 1,
            "codec_name": "mp2",
            "codec_long_name": "MP2 (MPEG audio layer 2)",
            "codec_type": "audio",
            "codec_time_base": "1/48000",
            "codec_tag_string": "[0][0][0][0]",
            "codec_tag": "0x0000",
            "sample_fmt": "s16p",
            "sample_rate": "48000",
            "channels": 2,
            "channel_layout": "stereo",
            "bits_per_sample": 0,
            "id": "0x1c0",
            "r_frame_rate": "0/0",
            "avg_frame_rate": "0/0",
            "time_base": "1/90000",
            "start_pts": 6006,
            "start_time": "0.066733",
            "duration_ts": 9812880,
            "duration": "109.032000",
            "bit_rate": "384000",
            "disposition": {
                "default": 0,
                "dub": 0,
                "original": 0,
                "comment": 0,
                "lyrics": 0,
                "karaoke": 0,
                "forced": 0,
                "hearing_impaired": 0,
                "visual_impaired": 0,
                "clean_effects": 0,
                "attached_pic": 0
            }
        },
        {
            "index": 2,
            "codec_name": "mp2",
            "codec_long_name": "MP2 (MPEG audio layer 2)",
            "codec_type": "audio",
            "codec_time_base": "1/48000",
            "codec_tag_string": "[0][0][0][0]",
            "codec_tag": "0x0000",
            "sample_fmt": "s16p",
            "sample_rate": "48000",
            "channels": 2,
            "channel_layout": "stereo",
            "bits_per_sample": 0,
            "id": "0x1c1",
            "r_frame_rate": "0/0",
            "avg_frame_rate": "0/0",
            "time_base": "1/90000",
            "start_pts": 6006,
            "start_time": "0.066733",
            "duration_ts": 9812880,
            "duration": "109.032000",
            "bit_rate": "384000",
            "disposition": {
                "default": 0,
                "dub": 0,
                "original": 0,
                "comment": 0,
                "lyrics": 0,
                "karaoke": 0,
                "forced": 0,
                "hearing_impaired": 0,
                "visual_impaired": 0,
                "clean_effects": 0,
                "attached_pic": 0
            }
        }
    ],
    "format": {
        "filename": "Teste 8-3-12.mpg",
        "nb_streams": 3,
        "nb_programs": 0,
        "format_name": "mpeg",
        "format_long_name": "MPEG-PS (MPEG-2 Program Stream)",
        "start_time": "0.066733",
        "duration": "109.042267",
        "size": "1281228800",
        "bit_rate": "93998691",
        "probe_score": 26
    }
}
